<?xml version="1.0" encoding="utf-8"?>
<!-- Generator: Adobe Illustrator 18.0.0, SVG Export Plug-In . SVG Version: 6.00 Build 0)  -->
<!DOCTYPE svg PUBLIC "-//W3C//DTD SVG 1.1//EN" "http://www.w3.org/Graphics/SVG/1.1/DTD/svg11.dtd">
<svg version="1.1" xmlns="http://www.w3.org/2000/svg" xmlns:xlink="http://www.w3.org/1999/xlink" x="0px" y="0px"
	 viewBox="0 0 700 320" enable-background="new 0 0 700 320" xml:space="preserve">
<g id="Layer_1">
</g>
<g id="Layer_2">
</g>
<g id="Layer_3">
	<rect x="575.9" y="197.9" fill="#D1D3D4" width="14.5" height="14.5"/>
	<polyline fill="none" stroke="#8EAD6A" stroke-width="5" stroke-miterlimit="10" points="121.1,194.5 121.1,156.8 161.8,156.8 	"/>
	<polyline fill="none" stroke="#8EAD6A" stroke-width="5" stroke-miterlimit="10" points="532.6,156.8 673.4,156.8 673.4,303 
		668,303 	"/>
	<rect x="458.6" y="102.5" fill="#D1D3D4" width="12.6" height="47.7"/>
	<rect x="237.1" y="159.2" fill="#D1D3D4" width="14.5" height="14.5"/>
	<rect x="346.5" y="56" fill="#D1D3D4" width="14.5" height="14.5"/>
	<rect x="346.5" y="75.8" fill="#D1D3D4" width="14.5" height="14.5"/>
	<ellipse fill="#D1D3D4" cx="195.2" cy="168.9" rx="7.5" ry="6.8"/>
	<ellipse fill="#D1D3D4" cx="216" cy="168.9" rx="7.5" ry="6.8"/>
	<ellipse fill="#D1D3D4" cx="364.7" cy="124.7" rx="7.5" ry="6.8"/>
	<rect x="372" y="179.9" fill="#D1D3D4" width="14.5" height="14.5"/>
	<rect x="353.7" y="24" fill="#D1D3D4" width="24.4" height="20.9"/>
	
		<rect x="322.5" y="106.5" transform="matrix(0.6817 0.7316 -0.7316 0.6817 191.4085 -207.9501)" fill="#D1D3D4" width="24.4" height="19"/>
	
		<rect x="322.5" y="144" transform="matrix(0.6817 0.7316 -0.7316 0.6817 218.8431 -196.0155)" fill="#D1D3D4" width="24.4" height="19"/>
	
		<rect x="280.2" y="106.3" transform="matrix(0.6817 0.7316 -0.7316 0.6817 177.7855 -177.0449)" fill="#D1D3D4" width="24.4" height="19"/>
	
		<rect x="280.2" y="144" transform="matrix(0.6817 0.7316 -0.7316 0.6817 205.3704 -165.0449)" fill="#D1D3D4" width="24.4" height="19"/>
	<rect x="404.8" y="83" fill="#D1D3D4" width="21" height="62.5"/>
	<rect x="443" y="159.2" fill="#D1D3D4" width="56" height="9.7"/>
	<rect x="550.8" y="159.2" fill="#D1D3D4" width="50.7" height="9.7"/>
	<polygon fill="#D1D3D4" points="183.2,301 183.2,259 379.2,259 379.2,275.8 200.3,275.8 200.3,301 	"/>
	<polygon fill="#D1D3D4" points="421.8,301 421.8,259 617.7,259 617.7,275.8 438.8,275.8 438.8,301 	"/>
	<path fill="none" stroke="#6D6E71" stroke-width="8" stroke-miterlimit="10" d="M148.8,163.1c3.7,5.5,2.3,13-3.3,16.8
		c-5.5,3.7-13,2.3-16.8-3.3"/>
	<rect x="644.2" y="183.4" fill="#D1D3D4" width="14.5" height="14.5"/>
	<rect x="644.1" y="205.4" fill="#D1D3D4" width="14.5" height="14.5"/>
	<rect x="644.3" y="227.3" fill="#D1D3D4" width="14.5" height="14.5"/>
	<rect x="644" y="249.3" fill="#D1D3D4" width="14.5" height="14.5"/>
	<rect x="538.5" y="197.9" fill="#D1D3D4" width="14.5" height="14.5"/>
	<rect x="501.1" y="197.9" fill="#D1D3D4" width="14.5" height="14.5"/>
	<rect x="463.8" y="197.9" fill="#D1D3D4" width="14.5" height="14.5"/>
	<rect x="576.1" y="215.2" fill="#D1D3D4" width="14.5" height="14.5"/>
	<rect x="538.7" y="215.2" fill="#D1D3D4" width="14.5" height="14.5"/>
	<rect x="501.4" y="215.2" fill="#D1D3D4" width="14.5" height="14.5"/>
	<rect x="464" y="215.2" fill="#D1D3D4" width="14.5" height="14.5"/>
	<rect x="636.7" y="102.5" fill="#D1D3D4" width="12.6" height="47.7"/>
	<rect x="602" y="102.5" fill="#D1D3D4" width="12.6" height="47.7"/>
	<rect x="567.3" y="102.5" fill="#D1D3D4" width="12.6" height="47.7"/>
	<rect x="532.6" y="102.5" fill="#D1D3D4" width="12.6" height="47.7"/>
	<rect x="458.6" y="102.5" fill="#D1D3D4" width="12.6" height="47.7"/>
	<rect x="346.5" y="57.2" fill="#D1D3D4" width="14.5" height="14.5"/>
	<rect x="346.5" y="75.8" fill="#D1D3D4" width="14.5" height="14.5"/>
	
		<rect x="422.7" y="206.7" transform="matrix(0.6817 0.7316 -0.7316 0.6817 296.6191 -249.3549)" fill="#D1D3D4" width="24.4" height="19"/>
	
		<rect x="388.3" y="206.7" transform="matrix(0.6817 0.7316 -0.7316 0.6817 285.6569 -224.1552)" fill="#D1D3D4" width="24.4" height="19"/>
	
		<rect x="322.6" y="106.3" transform="matrix(0.6817 0.7316 -0.7316 0.6817 191.2749 -208.0537)" fill="#D1D3D4" width="24.4" height="19"/>
	
		<rect x="322" y="144.1" transform="matrix(0.6817 0.7316 -0.7316 0.6817 218.7683 -195.6381)" fill="#D1D3D4" width="24.4" height="19"/>
	
		<rect x="279.7" y="144.1" transform="matrix(0.6817 0.7316 -0.7316 0.6817 205.2955 -164.6675)" fill="#D1D3D4" width="24.4" height="19"/>
	
		<rect x="322.1" y="143.9" transform="matrix(0.6817 0.7316 -0.7316 0.6817 218.6347 -195.7417)" fill="#D1D3D4" width="24.4" height="19"/>
	
		<rect x="280.6" y="143.9" transform="matrix(0.6817 0.7316 -0.7316 0.6817 205.4446 -165.4209)" fill="#D1D3D4" width="24.4" height="19"/>
	<rect x="19" y="203.9" fill="#D1D3D4" width="14.5" height="14.5"/>
	<rect x="19" y="235.2" fill="#D1D3D4" width="14.5" height="14.5"/>
	<rect x="19" y="266.4" fill="#D1D3D4" width="14.5" height="14.5"/>
	<rect x="32.7" y="283.9" fill="#D1D3D4" width="14.5" height="14.5"/>
	<rect x="64.8" y="283.9" fill="#D1D3D4" width="14.5" height="14.5"/>
	<rect x="97" y="283.9" fill="#D1D3D4" width="14.5" height="14.5"/>
	<line fill="none" stroke="#8EAD6A" stroke-width="5" stroke-miterlimit="10" x1="121.1" y1="287.2" x2="121.1" y2="301.9"/>
	
		<rect x="40.7" y="203.1" transform="matrix(0.684 0.7294 -0.7294 0.684 167.6438 30.8747)" fill="#D1D3D4" width="15" height="11.7"/>
	
		<rect x="42.4" y="231.5" transform="matrix(0.684 0.7294 -0.7294 0.684 188.8887 38.6179)" fill="#D1D3D4" width="15" height="11.7"/>
	
		<rect x="44.1" y="259.9" transform="matrix(0.684 0.7294 -0.7294 0.684 210.1335 46.3612)" fill="#D1D3D4" width="15" height="11.7"/>
	
		<rect x="68.8" y="202.4" transform="matrix(0.684 0.7294 -0.7294 0.684 176.0226 10.1838)" fill="#D1D3D4" width="15" height="11.7"/>
	
		<rect x="70.4" y="230.8" transform="matrix(0.684 0.7294 -0.7294 0.684 197.2674 17.927)" fill="#D1D3D4" width="15" height="11.7"/>
	
		<rect x="72.1" y="259.2" transform="matrix(0.684 0.7294 -0.7294 0.684 218.5122 25.6703)" fill="#D1D3D4" width="15" height="11.7"/>
	
		<rect x="99.4" y="259.9" transform="matrix(0.684 0.7294 -0.7294 0.684 227.6212 5.9881)" fill="#D1D3D4" width="15" height="11.7"/>
	<ellipse fill="#D1D3D4" cx="364.7" cy="165.2" rx="7.5" ry="6.8"/>
	<polyline fill="none" stroke="#8EAD6A" stroke-width="5" stroke-miterlimit="10" points="186.5,156.8 267.2,156.8 267.2,88.4 
		334.2,88.4 334.2,13.8 385.7,13.8 385.7,72.2 442.6,72.2 442.6,156.8 506.5,156.8 	"/>
	<polyline fill="none" stroke="#8EAD6A" stroke-width="5" stroke-miterlimit="10" points="386.5,303 14.2,303 14.2,194.5 
		93.4,194.5 93.4,242.2 121.1,242.2 121.1,268.4 	"/>
	<line fill="none" stroke="#8EAD6A" stroke-width="5" stroke-miterlimit="10" x1="642.6" y1="303" x2="408.8" y2="303"/>
</g>
</svg>
