<?xml version="1.0" encoding="utf-8"?>
<!-- Generator: Adobe Illustrator 19.1.0, SVG Export Plug-In . SVG Version: 6.00 Build 0)  -->
<svg version="1.1" id="Layer_1" xmlns="http://www.w3.org/2000/svg" xmlns:xlink="http://www.w3.org/1999/xlink" x="0px" y="0px"
	 viewBox="910.8 307.8 942.1 582.1" style="enable-background:new 910.8 307.8 942.1 582.1;" xml:space="preserve">
<style type="text/css">
	.st0{fill:#CECECE;}
	.st1{fill:none;stroke:#D1D3D4;stroke-width:6;stroke-miterlimit:10;}
	.st2{enable-background:new    ;}
	.st3{fill:#6D6E71;}
	.st4{fill:none;stroke:#D1D3D4;stroke-width:4;stroke-linecap:round;stroke-miterlimit:10;}
	.st5{fill:none;}
	.st6{fill:#FFFFFF;}
	.st7{fill:#8EAD6A;}
</style>
<rect x="1069.9" y="354.4" class="st0" width="655.7" height="96.1"/>
<line class="st1" x1="1004.3" y1="877.8" x2="997.4" y2="467.7"/>
<path class="st1" d="M998.4,511.9c0,0,754.9,18,831.1-18.5"/>
<path class="st1" d="M1744.5,843.8c0,0-12.8-215.9-6.4-270.4s15.4-66.8,15.4-66.8"/>
<line class="st1" x1="1002.7" y1="845.7" x2="1771.5" y2="843.6"/>
<g class="st2">
	<path class="st3" d="M968.9,617l7.9,3.1v4l-11.6-5.2l-7.9,0.1v-3.7l7.9-0.1l11.5-5.4v4L968.9,617z"/>
	<path class="st3" d="M967.7,624.2c0.8,0,1.5,0.2,2.1,0.5c0.6,0.3,1.1,0.7,1.4,1.2c0.4,0.5,0.6,1,0.8,1.7c0.2,0.6,0.3,1.3,0.3,2
		c0,0.9-0.1,1.7-0.3,2.3c-0.2,0.6-0.5,1.2-0.9,1.6c-0.4,0.4-0.9,0.7-1.4,0.9c-0.5,0.2-1.1,0.3-1.8,0.3l-9.3,0.1
		c-0.2,0-0.4,0-0.6,0.1c-0.2,0-0.4,0.1-0.6,0.1v-3.4c0.2,0,0.4-0.1,0.6-0.1s0.5-0.1,0.8-0.1c-0.5-0.5-0.9-1.1-1.2-1.7
		c-0.3-0.7-0.5-1.4-0.5-2.3c0-1,0.3-1.8,0.8-2.5c0.6-0.6,1.4-0.9,2.6-0.9c0.8,0,1.6,0.2,2.2,0.5c0.6,0.4,1.2,0.9,1.7,1.6
		s0.9,1.5,1.3,2.4c0.4,0.9,0.7,1.9,1.1,2.9h1.1c0.6,0,1.1-0.2,1.3-0.5c0.3-0.3,0.4-0.8,0.4-1.2c0-0.5-0.2-1-0.5-1.3
		c-0.3-0.4-0.8-0.5-1.3-0.5L967.7,624.2z M964.6,631.3c-0.2-0.5-0.4-1-0.6-1.5s-0.5-0.9-0.8-1.3s-0.6-0.7-0.9-0.9
		c-0.3-0.2-0.7-0.3-1.1-0.3c-0.5,0-0.9,0.1-1.1,0.4s-0.4,0.6-0.4,1.1s0.1,1,0.4,1.4s0.6,0.8,1,1.2L964.6,631.3z"/>
	<path class="st3" d="M972.1,636.7v3.2L963,642v0.1l9.2,1.9v2.9l-9.1,2.2v0.1l9.2,1.8v3.2l-14.7-3.3v-3.2l9.1-2.2v-0.1l-9.2-1.7
		v-3.2L972.1,636.7z"/>
	<path class="st3" d="M957.7,656.2l19.4-0.2v3.4l-10.5,0.1v0.1l5.7,3.5v3.8l-5-3.3l-9.6,3.8v-3.6l6.8-2.5l-2.4-1.7h-4.5L957.7,656.2
		z"/>
	<path class="st3" d="M964.4,672.5h-1.9c-0.7,0-1.3,0.2-1.6,0.6c-0.3,0.4-0.5,0.9-0.5,1.4c0,0.7,0.2,1.2,0.6,1.5
		c0.4,0.3,0.9,0.4,1.5,0.4v3.4c-1.5-0.1-2.7-0.5-3.6-1.4c-0.8-0.9-1.3-2.2-1.3-3.9c0-0.8,0.1-1.5,0.3-2.2c0.2-0.7,0.6-1.2,1-1.7
		c0.4-0.5,1-0.8,1.6-1.1c0.6-0.3,1.4-0.4,2.2-0.4l4.8-0.1c0.8,0,1.5,0.1,2.2,0.4s1.2,0.6,1.6,1.1c0.5,0.5,0.8,1,1.1,1.7
		c0.2,0.7,0.4,1.4,0.4,2.2c0,0.8-0.1,1.5-0.3,2.2s-0.6,1.2-1,1.7c-0.4,0.5-0.9,0.9-1.5,1.1c-0.6,0.3-1.3,0.4-2,0.4h-3.4L964.4,672.5
		z M967.2,676.5h0.8c0.6,0,1.2-0.2,1.5-0.5s0.6-0.8,0.5-1.5c0-0.7-0.2-1.2-0.6-1.5c-0.4-0.3-0.9-0.5-1.5-0.5h-0.8L967.2,676.5z"/>
	<path class="st3" d="M955.8,682.2c0,0.2-0.1,0.3,0,0.5c0,0.2,0,0.3,0,0.5c0,0.4,0.1,0.7,0.2,1c0.1,0.3,0.3,0.5,0.5,0.8
		c0.2,0.2,0.4,0.4,0.6,0.5s0.4,0.2,0.6,0.2c0.4,0,0.9-0.1,1.4-0.2s1.1-0.3,1.7-0.5l11.8-3.5v3.4l-9.7,2.4v0.1l9.7,2v3.4l-14.6-3.7
		c-1-0.3-1.8-0.5-2.5-0.8s-1.2-0.7-1.6-1.1c-0.4-0.4-0.7-1-0.9-1.6c-0.2-0.6-0.3-1.3-0.3-2.2c0-0.2,0-0.3,0-0.5s0-0.4,0-0.6
		L955.8,682.2z"/>
	<path class="st3" d="M977.6,701.1v3.4l-12.7,2.7v0.1l12.7,2.5v3.6l-12.7,2.8v0.1l12.7,2.4v3.5l-19.5-4v-3.6l13.3-2.9v-0.1
		l-13.3-2.8v-3.5L977.6,701.1z"/>
	<path class="st3" d="M968.8,723.8c0.8,0,1.5,0.2,2.1,0.5c0.6,0.3,1.1,0.7,1.4,1.2c0.4,0.5,0.6,1,0.8,1.7c0.2,0.6,0.3,1.3,0.3,2
		c0,0.9-0.1,1.7-0.3,2.3c-0.2,0.6-0.5,1.2-0.9,1.6c-0.4,0.4-0.9,0.7-1.4,0.9c-0.5,0.2-1.1,0.3-1.8,0.3l-9.3,0.1
		c-0.2,0-0.4,0-0.6,0.1s-0.4,0.1-0.6,0.1v-3.4c0.2,0,0.4-0.1,0.6-0.1s0.5-0.1,0.8-0.1c-0.5-0.5-0.9-1.1-1.2-1.7
		c-0.3-0.7-0.5-1.4-0.5-2.3c0-1,0.3-1.8,0.8-2.5c0.6-0.6,1.4-0.9,2.6-0.9c0.8,0,1.6,0.2,2.2,0.5c0.6,0.4,1.2,0.9,1.7,1.6
		s0.9,1.5,1.3,2.4c0.4,0.9,0.7,1.9,1.1,2.9h1.1c0.6,0,1.1-0.2,1.3-0.5c0.2-0.3,0.4-0.8,0.4-1.2c0-0.5-0.2-1-0.5-1.3
		c-0.3-0.4-0.8-0.5-1.3-0.5L968.8,723.8z M965.7,730.9c-0.2-0.5-0.4-1-0.6-1.5s-0.5-0.9-0.8-1.3s-0.6-0.7-0.9-0.9
		c-0.3-0.2-0.7-0.3-1.1-0.3c-0.5,0-0.9,0.1-1.1,0.4c-0.3,0.3-0.4,0.6-0.4,1.1s0.1,1,0.4,1.4c0.2,0.4,0.6,0.8,1,1.2L965.7,730.9z"/>
	<path class="st3" d="M956.5,737c0,0.2-0.1,0.3,0,0.5c0,0.2,0,0.3,0,0.5c0,0.4,0.1,0.7,0.2,1c0.1,0.3,0.3,0.5,0.5,0.8
		c0.2,0.2,0.4,0.4,0.6,0.5s0.4,0.2,0.6,0.2c0.4,0,0.9-0.1,1.4-0.2s1.1-0.3,1.7-0.5l11.8-3.5v3.4l-9.7,2.4v0.1l9.7,2v3.4l-14.6-3.7
		c-1-0.3-1.8-0.5-2.5-0.8s-1.2-0.7-1.6-1.1c-0.4-0.4-0.7-1-0.9-1.6c-0.2-0.6-0.3-1.3-0.3-2.2c0-0.2,0-0.3,0-0.5s0-0.4,0-0.6
		L956.5,737z"/>
</g>
<g class="st2">
	<path class="st3" d="M1502.2,804h5.2c2,0,3.6,0.4,4.6,1.2c1.1,0.8,1.6,2.1,1.6,3.8c0,1.7-0.8,3.1-2.4,4c0.5,0.3,0.9,0.6,1.3,1
		c0.4,0.4,0.7,0.7,0.9,1c0.2,0.4,0.4,0.8,0.5,1.2c0.1,0.4,0.2,1,0.2,1.6c0,1-0.2,1.8-0.5,2.5c-0.3,0.7-0.8,1.3-1.3,1.7s-1.2,0.8-2,1
		c-0.8,0.2-1.7,0.3-2.7,0.3h-5.4V804z M1505.9,811.7h1.3c0.8,0,1.5-0.2,2-0.6s0.8-1,0.8-1.6c0-0.7-0.2-1.3-0.6-1.7
		c-0.4-0.4-1.1-0.6-1.9-0.6h-1.5L1505.9,811.7z M1505.9,820.4h1.6c1,0,1.7-0.3,2.2-0.8s0.8-1.2,0.8-2.1s-0.3-1.6-0.9-2.1
		c-0.6-0.5-1.4-0.7-2.3-0.7h-1.3L1505.9,820.4z"/>
	<path class="st3" d="M1516.8,814.1c0-1.9,0.5-3.3,1.4-4.2c0.9-0.9,2.3-1.3,4-1.3c1.7,0,3,0.4,4,1.3s1.4,2.3,1.4,4.2v4.1
		c0,1.9-0.5,3.3-1.4,4.2c-0.9,0.9-2.3,1.3-4,1.3c-1.7,0-3-0.4-4-1.3c-0.9-0.9-1.4-2.3-1.4-4.2V814.1z M1520.2,819
		c0,0.6,0.2,1,0.6,1.3c0.4,0.3,0.8,0.4,1.4,0.4s1.1-0.1,1.4-0.4c0.4-0.3,0.6-0.7,0.6-1.3v-5.8c0-0.6-0.2-1-0.6-1.3s-0.8-0.4-1.4-0.4
		c-0.6,0-1.1,0.1-1.4,0.4c-0.4,0.3-0.6,0.7-0.6,1.3V819z"/>
	<path class="st3" d="M1529.8,825.6c0.2,0,0.3,0.1,0.5,0.1c0.2,0,0.3,0,0.5,0c0.4,0,0.7-0.1,1-0.2c0.3-0.1,0.6-0.3,0.8-0.5
		c0.2-0.2,0.4-0.4,0.5-0.6s0.2-0.4,0.2-0.6c0-0.4-0.1-0.9-0.2-1.4c-0.1-0.5-0.3-1.1-0.4-1.7l-3.4-11.8h3.4l2.3,9.7h0.1l2.1-9.7h3.4
		l-3.9,14.6c-0.3,1-0.6,1.8-0.9,2.5c-0.3,0.7-0.7,1.2-1.1,1.6c-0.4,0.4-1,0.7-1.6,0.9c-0.6,0.2-1.3,0.3-2.2,0.3c-0.2,0-0.3,0-0.5,0
		c-0.2,0-0.4,0-0.6,0V825.6z"/>
	<path class="st3" d="M1542.9,804h3.4v19.4h-3.4V804z"/>
	<path class="st3" d="M1556.4,813.3c-0.2-0.7-0.6-1.2-1-1.5s-0.9-0.5-1.4-0.5c-0.4,0-0.7,0.1-1,0.4c-0.3,0.3-0.4,0.6-0.4,0.9
		c0,0.4,0.2,0.7,0.5,1c0.3,0.3,0.7,0.5,1.2,0.8c0.5,0.2,1,0.5,1.6,0.8s1.1,0.6,1.6,1s0.9,0.8,1.2,1.3c0.3,0.5,0.5,1.1,0.5,1.8
		c0,0.7-0.1,1.4-0.4,1.9c-0.2,0.5-0.6,1-1,1.4s-0.9,0.7-1.5,0.8c-0.6,0.2-1.2,0.3-1.9,0.3c-0.5,0-1,0-1.5-0.1s-1-0.3-1.4-0.6
		c-0.5-0.3-0.9-0.7-1.3-1.3c-0.4-0.5-0.9-1.3-1.3-2.2l3-0.8c0.1,0.7,0.4,1.2,0.8,1.6c0.4,0.4,1,0.6,1.6,0.6c0.5,0,0.9-0.1,1.2-0.3
		c0.3-0.2,0.4-0.5,0.4-1s-0.2-0.9-0.5-1.2c-0.3-0.3-0.7-0.6-1.2-0.8c-0.5-0.2-1-0.5-1.6-0.7s-1.1-0.6-1.6-0.9
		c-0.5-0.4-0.9-0.8-1.2-1.4c-0.3-0.5-0.5-1.2-0.5-2c0-0.7,0.1-1.3,0.4-1.8c0.3-0.5,0.6-0.9,1-1.3c0.4-0.3,0.9-0.6,1.5-0.8
		c0.6-0.2,1.1-0.3,1.7-0.3c1.3,0,2.3,0.3,3.2,1s1.5,1.6,1.9,2.7L1556.4,813.3z"/>
	<path class="st3" d="M1560.4,812.2v-2.7h1.3v-4h3.4v4h2.2v2.7h-2.2v7.5c0,0.4,0.1,0.6,0.4,0.8c0.3,0.2,0.7,0.3,1.1,0.3
		c0.1,0,0.2,0,0.3,0s0.2,0,0.3,0v2.9c-0.3,0.1-0.6,0.1-1,0.1c-0.3,0-0.6,0-1,0c-1.1,0-2-0.2-2.7-0.7c-0.7-0.4-1-1.2-1-2.2v-8.6h-1.1
		V812.2z"/>
	<path class="st3" d="M1569.1,814.1c0-1.9,0.5-3.3,1.4-4.2c0.9-0.9,2.3-1.3,4-1.3c1.7,0,3,0.4,4,1.3s1.4,2.3,1.4,4.2v4.1
		c0,1.9-0.5,3.3-1.4,4.2c-1,0.9-2.3,1.3-4,1.3c-1.7,0-3-0.4-4-1.3c-0.9-0.9-1.4-2.3-1.4-4.2V814.1z M1572.5,819c0,0.6,0.2,1,0.6,1.3
		s0.8,0.4,1.4,0.4c0.6,0,1.1-0.1,1.4-0.4c0.4-0.3,0.6-0.7,0.6-1.3v-5.8c0-0.6-0.2-1-0.6-1.3c-0.4-0.3-0.8-0.4-1.4-0.4
		c-0.6,0-1.1,0.1-1.4,0.4c-0.4,0.3-0.6,0.7-0.6,1.3V819z"/>
	<path class="st3" d="M1582.8,823.4v-14.6h3.3v1.7c0.6-0.5,1.2-1,1.8-1.4c0.6-0.4,1.2-0.6,1.9-0.6c1,0,1.8,0.3,2.4,0.9
		c0.5,0.6,0.8,1.5,0.8,2.9v11.1h-3.4v-10.8c0-0.5-0.1-0.9-0.3-1.2c-0.2-0.3-0.5-0.4-1-0.4c-0.4,0-0.7,0.1-1.1,0.4s-0.7,0.6-1.1,0.9
		v11.1H1582.8z"/>
	<path class="st3" d="M1612,809.4c-0.3-0.9-0.7-1.6-1.1-2s-1-0.6-1.6-0.6c-0.7,0-1.2,0.2-1.5,0.6s-0.5,0.9-0.5,1.6
		c0,0.5,0.2,0.9,0.6,1.3s0.9,0.7,1.5,1.1s1.3,0.7,2,1.1s1.4,0.8,2,1.4s1.1,1.1,1.5,1.9c0.4,0.7,0.6,1.6,0.6,2.6
		c0,0.8-0.1,1.6-0.4,2.3c-0.3,0.7-0.7,1.3-1.2,1.7s-1.2,0.9-1.9,1.1s-1.6,0.4-2.6,0.4c-1.5,0-2.8-0.4-3.9-1.3s-1.9-2.2-2.4-4.2
		l3.7-0.8c0.1,0.6,0.3,1.1,0.5,1.5s0.4,0.7,0.7,1c0.3,0.3,0.6,0.4,0.8,0.5s0.6,0.2,0.8,0.2c0.6,0,1.2-0.2,1.6-0.6s0.7-1,0.7-1.7
		c0-0.6-0.2-1.1-0.6-1.6c-0.4-0.4-0.9-0.8-1.5-1.2s-1.3-0.7-2-1.1s-1.4-0.8-2-1.3s-1.1-1-1.5-1.7c-0.4-0.6-0.6-1.4-0.6-2.3
		c0-1.7,0.5-3,1.5-4s2.4-1.5,4.4-1.5c0.8,0,1.6,0.1,2.2,0.3s1.2,0.6,1.7,1s0.9,0.9,1.3,1.5s0.6,1.2,0.7,1.9L1612,809.4z"/>
	<path class="st3" d="M1617.2,812.2v-2.7h1.3v-4h3.4v4h2.2v2.7h-2.2v7.5c0,0.4,0.1,0.6,0.4,0.8s0.6,0.3,1.1,0.3c0.1,0,0.2,0,0.3,0
		s0.2,0,0.3,0v2.9c-0.3,0.1-0.6,0.1-1,0.1c-0.3,0-0.6,0-1,0c-1.1,0-2-0.2-2.7-0.7c-0.7-0.4-1-1.2-1-2.2v-8.6L1617.2,812.2z"/>
</g>
<g class="st2">
	<path class="st3" d="M1766.7,618.5h19.4v3.7h-19.4V618.5z"/>
	<path class="st3" d="M1781.3,628.8h-1.8v0.1c0.2,0.1,0.5,0.3,0.7,0.6c0.2,0.3,0.5,0.5,0.7,0.9c0.2,0.3,0.4,0.7,0.5,1
		c0.1,0.4,0.2,0.7,0.2,1.1c0,1.3-0.5,2.3-1.5,2.9s-2.4,0.9-4.3,0.9h-3.5c-1.9,0-3.3-0.3-4.3-0.9s-1.5-1.5-1.5-2.8
		c0-0.5,0.1-0.9,0.4-1.4c0.2-0.5,0.7-1.1,1.2-1.9h-6.5v-3.4h19.8L1781.3,628.8z M1770,629.1c-0.7,0.6-1,1.3-1,2c0,0.2,0,0.4,0.1,0.6
		s0.3,0.4,0.5,0.5c0.3,0.2,0.6,0.3,1.1,0.4c0.4,0.1,1,0.1,1.8,0.1h3.1c0.7,0,1.3,0,1.8-0.1s0.8-0.2,1.1-0.4c0.3-0.2,0.4-0.3,0.5-0.5
		s0.1-0.4,0.1-0.6c0-0.7-0.4-1.4-1.1-2H1770z"/>
	<path class="st3" d="M1776.9,645.6c0.7-0.2,1.2-0.6,1.5-1s0.5-0.9,0.5-1.4c0-0.4-0.1-0.7-0.4-1s-0.6-0.4-0.9-0.4
		c-0.4,0-0.7,0.2-1,0.5s-0.5,0.7-0.8,1.2s-0.5,1-0.8,1.6s-0.6,1.1-1,1.6s-0.8,0.9-1.3,1.2c-0.5,0.3-1.1,0.5-1.8,0.5
		c-0.7,0-1.4-0.1-1.9-0.4c-0.5-0.2-1-0.6-1.4-1s-0.7-0.9-0.8-1.5c-0.2-0.6-0.3-1.2-0.3-1.9c0-0.5,0-1,0.1-1.5s0.3-1,0.6-1.4
		c0.3-0.5,0.7-0.9,1.3-1.3c0.5-0.4,1.3-0.9,2.2-1.3l0.8,3c-0.7,0.1-1.2,0.4-1.6,0.8s-0.6,1-0.6,1.6c0,0.5,0.1,0.9,0.3,1.2
		c0.2,0.3,0.5,0.4,1,0.4s0.9-0.2,1.2-0.5c0.3-0.3,0.6-0.7,0.8-1.2c0.2-0.5,0.5-1,0.7-1.6c0.3-0.6,0.6-1.1,0.9-1.6
		c0.4-0.5,0.8-0.9,1.4-1.2c0.5-0.3,1.2-0.5,2-0.5c0.7,0,1.3,0.1,1.8,0.4s0.9,0.6,1.3,1c0.3,0.4,0.6,0.9,0.8,1.5
		c0.2,0.6,0.3,1.1,0.3,1.7c0,1.3-0.3,2.3-1,3.2c-0.7,0.9-1.5,1.5-2.7,1.9L1776.9,645.6z"/>
	<path class="st3" d="M1781.3,649.8v3.2l-9.1,2v0.1l9.1,2v2.9l-9.1,2.1v0.1l9.1,1.8v3.2l-14.6-3.4v-3.2l9.1-2.1v-0.1l-9.1-1.8v-3.2
		L1781.3,649.8z"/>
	<path class="st3" d="M1783.9,669.4h3.1v3.4h-3.1V669.4z M1781.3,672.8h-14.6v-3.4h14.6V672.8z"/>
	<path class="st3" d="M1776.3,683.6h0.6c0.6,0,1-0.2,1.3-0.6s0.4-0.8,0.4-1.4s-0.1-1.1-0.4-1.4c-0.3-0.4-0.7-0.6-1.3-0.5h-5.8
		c-0.6,0-1,0.2-1.3,0.6s-0.4,0.8-0.4,1.4s0.1,1.1,0.4,1.4c0.3,0.4,0.7,0.6,1.3,0.6h0.9v3.4h-0.1c-1.9,0-3.3-0.5-4.2-1.4
		c-0.9-0.9-1.3-2.3-1.3-4s0.4-3,1.3-4c0.9-0.9,2.3-1.4,4.2-1.4h4.1c1.9,0,3.3,0.5,4.2,1.4c0.9,0.9,1.3,2.3,1.3,4s-0.4,3-1.3,3.9
		c-0.8,0.9-2.2,1.4-4.1,1.5L1776.3,683.6z"/>
	<path class="st3" d="M1766.7,690h19.4v3.4h-6.5c0.5,0.6,1,1.2,1.4,1.7c0.4,0.6,0.6,1.2,0.6,1.9c0,1-0.3,1.8-0.9,2.4
		c-0.6,0.5-1.5,0.8-2.9,0.8h-11.1v-3.4h10.8c0.5,0,0.9-0.1,1.2-0.3c0.3-0.2,0.4-0.5,0.4-1c0-0.4-0.1-0.7-0.4-1.1s-0.6-0.7-0.9-1.1
		h-11.1V690z"/>
	<path class="st3" d="M1780.8,719.1c0.9-0.3,1.6-0.7,2-1.1s0.6-1,0.6-1.6c0-0.7-0.2-1.2-0.6-1.5s-0.9-0.5-1.6-0.5
		c-0.5,0-0.9,0.2-1.3,0.6s-0.7,0.9-1.1,1.5c-0.3,0.6-0.7,1.3-1.1,2s-0.8,1.4-1.4,2c-0.5,0.6-1.1,1.1-1.9,1.5
		c-0.7,0.4-1.6,0.6-2.6,0.6c-0.8,0-1.6-0.1-2.3-0.4c-0.7-0.3-1.3-0.7-1.7-1.2c-0.5-0.5-0.9-1.2-1.1-1.9s-0.4-1.6-0.4-2.6
		c0-1.5,0.4-2.8,1.3-3.9s2.2-1.9,4.2-2.4l0.8,3.7c-0.6,0.1-1.1,0.3-1.5,0.5s-0.7,0.4-1,0.7c-0.3,0.3-0.4,0.6-0.5,0.8
		c-0.1,0.3-0.2,0.6-0.2,0.8c0,0.6,0.2,1.2,0.6,1.6s1,0.7,1.7,0.7c0.6,0,1.1-0.2,1.6-0.6c0.4-0.4,0.8-0.9,1.2-1.5
		c0.4-0.6,0.7-1.3,1.1-2s0.8-1.4,1.3-2s1-1.1,1.7-1.5c0.6-0.4,1.4-0.6,2.3-0.6c1.7,0,3,0.5,4,1.5s1.5,2.4,1.5,4.4
		c0,0.8-0.1,1.6-0.3,2.2c-0.2,0.7-0.6,1.2-1,1.7s-0.9,0.9-1.5,1.3c-0.6,0.3-1.2,0.6-1.9,0.7L1780.8,719.1z"/>
	<path class="st3" d="M1778,724.4h2.7v1.3h4v3.4h-4v2.2h-2.7v-2.2h-7.5c-0.4,0-0.6,0.1-0.8,0.4c-0.2,0.3-0.3,0.7-0.3,1.1
		c0,0.1,0,0.2,0,0.3c0,0.1,0,0.2,0,0.3h-2.9c-0.1-0.3-0.1-0.6-0.1-1c0-0.3,0-0.6,0-1c0-1.1,0.2-2,0.7-2.7c0.4-0.7,1.2-1,2.2-1h8.6
		L1778,724.4z"/>
</g>
<g class="st2">
	<path class="st3" d="M1319.5,477h3.7l3.3,13.9h0.1l3.5-13.8h3.6l-5.2,19.4h-4.2L1319.5,477z"/>
	<path class="st3" d="M1334.3,486.2c0.1-0.8,0.3-1.5,0.6-2.1c0.3-0.6,0.7-1,1.2-1.4s1.1-0.6,1.7-0.8c0.6-0.2,1.3-0.2,2-0.2
		c0.9,0,1.7,0.1,2.3,0.3c0.6,0.2,1.1,0.5,1.5,0.9s0.7,0.9,0.8,1.4c0.2,0.5,0.3,1.1,0.2,1.8l-0.1,9.3c0,0.2,0,0.4,0,0.6
		s0.1,0.4,0.1,0.6h-3.4c0-0.2-0.1-0.4-0.1-0.6s-0.1-0.5-0.1-0.8c-0.5,0.5-1.1,0.9-1.8,1.2c-0.7,0.3-1.4,0.5-2.3,0.4
		c-1,0-1.8-0.3-2.4-0.9c-0.6-0.6-0.9-1.5-0.9-2.6c0-0.8,0.2-1.6,0.6-2.2s0.9-1.2,1.6-1.6c0.7-0.5,1.5-0.9,2.4-1.2s1.9-0.7,3-1v-1.1
		c0-0.6-0.2-1.1-0.5-1.3c-0.3-0.3-0.7-0.4-1.2-0.4s-1,0.2-1.3,0.5c-0.3,0.3-0.6,0.8-0.6,1.3L1334.3,486.2z M1341.3,489.5
		c-0.5,0.2-1,0.4-1.5,0.6s-0.9,0.5-1.3,0.8c-0.4,0.3-0.7,0.6-0.9,0.9c-0.2,0.3-0.4,0.7-0.4,1.1c0,0.5,0.1,0.9,0.4,1.1
		c0.3,0.3,0.6,0.4,1.1,0.4s1-0.1,1.4-0.3c0.4-0.2,0.8-0.6,1.2-1V489.5z"/>
	<path class="st3" d="M1347.9,496.7l0.2-14.6h3.3v1.7c0.6-0.5,1.3-1,1.9-1.4c0.6-0.4,1.3-0.6,2-0.5c1,0,1.8,0.3,2.3,0.9
		s0.8,1.5,0.8,2.9l-0.1,11.1h-3.4l0.1-10.8c0-0.5-0.1-0.9-0.3-1.2c-0.2-0.3-0.5-0.4-1-0.5c-0.4,0-0.7,0.1-1.1,0.4s-0.7,0.6-1.1,0.9
		l-0.1,11L1347.9,496.7z"/>
	<path class="st3" d="M1369.1,496.9l0.2-19.4h4.1l5,11.6h0.1l0.1-11.5h3.4l-0.2,19.4h-3.5l-5.5-12.6h-0.1l-0.1,12.5H1369.1z"/>
	<path class="st3" d="M1388.5,490.6v1.9c0,0.7,0.2,1.3,0.5,1.6c0.4,0.3,0.8,0.5,1.4,0.5c0.7,0,1.2-0.2,1.5-0.6
		c0.3-0.4,0.5-0.9,0.5-1.4h3.4c-0.1,1.5-0.6,2.7-1.5,3.5s-2.2,1.2-3.9,1.2c-0.8,0-1.5-0.1-2.2-0.4c-0.7-0.2-1.2-0.6-1.7-1.1
		s-0.8-1-1.1-1.6c-0.3-0.6-0.4-1.4-0.4-2.2l0.1-4.8c0-0.8,0.1-1.5,0.4-2.2c0.3-0.6,0.6-1.2,1.1-1.6s1-0.8,1.7-1
		c0.7-0.2,1.4-0.3,2.2-0.3c0.8,0,1.5,0.1,2.2,0.4c0.7,0.2,1.2,0.6,1.7,1s0.8,1,1.1,1.6c0.3,0.6,0.4,1.3,0.4,2v3.4L1388.5,490.6z
		 M1392.5,487.9v-0.8c0-0.6-0.1-1.2-0.5-1.5c-0.3-0.4-0.8-0.6-1.5-0.6c-0.7,0-1.2,0.2-1.5,0.5c-0.3,0.4-0.5,0.9-0.5,1.5v0.8
		L1392.5,487.9z"/>
	<path class="st3" d="M1405.3,487.2c-0.2-0.7-0.5-1.2-0.9-1.5s-0.9-0.5-1.4-0.5c-0.4,0-0.7,0.1-1,0.4c-0.3,0.2-0.4,0.6-0.4,0.9
		c0,0.4,0.2,0.7,0.5,1c0.3,0.3,0.7,0.5,1.2,0.8s1,0.5,1.6,0.8s1.1,0.6,1.6,1s0.9,0.8,1.2,1.3c0.3,0.5,0.5,1.1,0.5,1.8
		c0,0.7-0.1,1.4-0.4,1.9c-0.2,0.5-0.6,1-1,1.4s-1,0.6-1.6,0.8c-0.6,0.2-1.3,0.3-2,0.3c-0.5,0-1-0.1-1.5-0.1c-0.5-0.1-1-0.3-1.4-0.6
		c-0.5-0.3-0.9-0.7-1.3-1.3c-0.4-0.6-0.8-1.3-1.2-2.2l3-0.8c0.1,0.7,0.4,1.2,0.8,1.6s1,0.6,1.6,0.6c0.5,0,0.9-0.1,1.2-0.3
		c0.3-0.2,0.4-0.5,0.4-0.9c0-0.5-0.2-0.9-0.5-1.2c-0.3-0.3-0.7-0.6-1.2-0.8c-0.5-0.2-1-0.5-1.6-0.8s-1.1-0.6-1.6-0.9
		c-0.5-0.4-0.9-0.8-1.2-1.4c-0.3-0.5-0.5-1.2-0.5-2c0-0.7,0.1-1.3,0.4-1.8s0.6-0.9,1-1.3c0.4-0.3,0.9-0.6,1.5-0.7
		c0.6-0.2,1.1-0.2,1.7-0.2c1.3,0,2.3,0.4,3.2,1c0.9,0.7,1.5,1.6,1.9,2.7L1405.3,487.2z"/>
	<path class="st3" d="M1417.2,487.3c-0.2-0.7-0.5-1.2-0.9-1.5s-0.9-0.5-1.4-0.5c-0.4,0-0.7,0.1-1,0.4c-0.3,0.3-0.4,0.6-0.4,0.9
		c0,0.4,0.2,0.7,0.5,1c0.3,0.3,0.7,0.5,1.2,0.8s1,0.5,1.6,0.8s1.1,0.6,1.6,1s0.9,0.8,1.2,1.3c0.3,0.5,0.5,1.1,0.5,1.8
		c0,0.7-0.1,1.4-0.4,1.9c-0.2,0.5-0.6,1-1,1.4s-1,0.6-1.6,0.8s-1.3,0.3-2,0.3c-0.5,0-1-0.1-1.5-0.1c-0.5-0.1-1-0.3-1.4-0.6
		c-0.5-0.3-0.9-0.7-1.3-1.3c-0.4-0.6-0.8-1.3-1.2-2.2l3-0.8c0.1,0.7,0.4,1.2,0.8,1.7c0.4,0.4,1,0.6,1.6,0.6c0.5,0,0.9-0.1,1.2-0.3
		c0.3-0.2,0.4-0.5,0.4-1s-0.2-0.9-0.5-1.2c-0.3-0.3-0.7-0.6-1.2-0.8c-0.5-0.2-1-0.5-1.6-0.8s-1.1-0.6-1.6-0.9
		c-0.5-0.4-0.9-0.8-1.2-1.4c-0.3-0.5-0.5-1.2-0.5-2c0-0.7,0.1-1.3,0.4-1.8s0.6-0.9,1-1.3c0.4-0.3,0.9-0.6,1.5-0.7
		c0.6-0.2,1.1-0.2,1.7-0.2c1.3,0,2.3,0.4,3.2,1c0.9,0.7,1.5,1.6,1.9,2.7L1417.2,487.3z"/>
	<path class="st3" d="M1438.5,483.7c-0.3-0.9-0.7-1.6-1.1-2c-0.4-0.4-1-0.6-1.6-0.6c-0.7,0-1.2,0.2-1.5,0.5
		c-0.4,0.4-0.5,0.9-0.5,1.6c0,0.5,0.2,0.9,0.6,1.3s0.9,0.7,1.5,1.1s1.3,0.7,2,1.1c0.7,0.4,1.4,0.9,2,1.4s1.1,1.2,1.5,1.9
		c0.4,0.7,0.6,1.6,0.6,2.6c0,0.8-0.2,1.6-0.4,2.3c-0.3,0.7-0.7,1.3-1.2,1.7c-0.5,0.5-1.2,0.8-2,1.1c-0.8,0.3-1.6,0.4-2.6,0.4
		c-1.5,0-2.8-0.5-3.9-1.3c-1.1-0.9-1.9-2.3-2.4-4.2l3.7-0.7c0.1,0.6,0.3,1.1,0.5,1.5c0.2,0.4,0.4,0.7,0.7,1c0.3,0.3,0.5,0.4,0.8,0.5
		c0.3,0.1,0.6,0.2,0.8,0.2c0.6,0,1.2-0.2,1.6-0.6c0.4-0.4,0.7-1,0.7-1.7c0-0.6-0.2-1.1-0.6-1.6c-0.4-0.4-0.9-0.9-1.5-1.2
		c-0.6-0.4-1.3-0.8-2-1.1c-0.7-0.4-1.4-0.8-2-1.3s-1.1-1-1.5-1.7c-0.4-0.6-0.6-1.4-0.6-2.3c0-1.7,0.5-3,1.5-4s2.4-1.4,4.4-1.4
		c0.8,0,1.6,0.1,2.2,0.4c0.7,0.2,1.2,0.6,1.7,1s0.9,0.9,1.2,1.5c0.3,0.6,0.6,1.2,0.7,1.9L1438.5,483.7z"/>
	<path class="st3" d="M1443.7,486.5v-2.7h1.3v-4h3.4v4h2.2v2.7h-2.2l-0.1,7.5c0,0.4,0.1,0.6,0.4,0.8c0.3,0.2,0.6,0.3,1.1,0.3
		c0.1,0,0.2,0,0.3,0s0.2,0,0.3,0v2.9c-0.3,0-0.6,0.1-1,0.1c-0.3,0-0.6,0-1,0c-1.1,0-2-0.2-2.7-0.7c-0.7-0.4-1-1.2-1-2.3l0.1-8.6
		L1443.7,486.5z"/>
</g>
<line class="st4" x1="1172.2" y1="601.2" x2="1173.9" y2="845.4"/>
<path class="st4" d="M1238.8,833.8"/>
<polyline class="st4" points="1234.7,845.5 1238.6,560.1 1425.9,558.9 "/>
<line class="st4" x1="1235.7" y1="775.9" x2="1366.1" y2="773.8"/>
<rect x="1027.2" y="541.2" transform="matrix(1 5.160391e-03 -5.160391e-03 1 3.4598 -5.5808)" class="st0" width="112" height="253"/>
<polygon class="st0" points="1456.8,605.3 1456.6,588.3 1256.7,589.9 1257.1,641 1282.8,640.8 1282.8,654.4 1266,654.3 
	1266.3,734.7 1266.3,744.9 1304.9,744.6 1304.9,734.3 1322.5,734.3 1321.7,654.1 1297.1,654.3 1297.1,640.7 1392.5,640.2 
	1392.5,655.9 1365,656.2 1365.6,730.4 1361.6,730.4 1361.7,739.3 1347.4,740.5 1347.7,757.4 1365.8,757.9 1365.7,783.2 
	1403.2,782.8 1402.4,659.1 1402.3,656.1 1402.5,640 1456.8,639.7 1456.9,616.7 1461.7,616.5 1461.3,605 "/>
<rect x="1523.6" y="585.9" transform="matrix(-1.903962e-03 1 -1 -1.903962e-03 2302.7693 -849.0484)" class="st0" width="103" height="277.5"/>
<line class="st4" x1="1733.5" y1="659.3" x2="1483.3" y2="658.2"/>
<line class="st4" x1="1735.9" y1="587.6" x2="1485.7" y2="586.8"/>
<rect x="1538.1" y="-8.7" class="st5" width="237.4" height="61.2"/>
<g class="st2">
	<path class="st3" d="M1296.1,604.9h3.7l3.4,13.9h0.1l3.4-13.9h3.6l-5,19.4h-4.2L1296.1,604.9z"/>
	<path class="st3" d="M1314.4,617.8v1.9c0,0.7,0.2,1.3,0.6,1.6c0.4,0.3,0.9,0.5,1.4,0.5c0.7,0,1.2-0.2,1.5-0.6
		c0.3-0.4,0.5-0.9,0.5-1.5h3.4c-0.1,1.5-0.6,2.7-1.5,3.5s-2.2,1.2-3.9,1.2c-0.8,0-1.5-0.1-2.2-0.4c-0.7-0.2-1.2-0.6-1.7-1
		s-0.8-1-1.1-1.6c-0.3-0.6-0.4-1.4-0.4-2.2v-4.8c0-0.8,0.1-1.5,0.4-2.2c0.3-0.6,0.6-1.2,1.1-1.6s1-0.8,1.7-1
		c0.7-0.2,1.4-0.4,2.2-0.4c0.8,0,1.5,0.1,2.2,0.4c0.7,0.2,1.2,0.6,1.7,1s0.8,1,1.1,1.6c0.3,0.6,0.4,1.3,0.4,2v3.4L1314.4,617.8z
		 M1318.4,615v-0.8c0-0.6-0.2-1.2-0.5-1.5c-0.3-0.4-0.8-0.6-1.5-0.6c-0.7,0-1.2,0.2-1.5,0.6c-0.3,0.4-0.5,0.9-0.5,1.5v0.8H1318.4z"
		/>
	<path class="st3" d="M1324.7,624.3v-14.6h3.3v1.9h0.1c0.4-0.7,0.9-1.3,1.4-1.7c0.5-0.4,1.2-0.5,2.1-0.5v3.7
		c-0.3-0.1-0.6-0.2-0.9-0.3c-0.3-0.1-0.6-0.1-0.9-0.1c-0.6,0-1,0.2-1.2,0.5c-0.3,0.3-0.4,0.7-0.4,1.1v10H1324.7z"/>
	<path class="st3" d="M1333.7,624.3v-19.4h3.4v6.1c0.8-0.6,1.5-1,2-1.2s1-0.4,1.4-0.4c1.3,0,2.3,0.5,2.8,1.5s0.9,2.4,0.9,4.3v3.5
		c0,1.9-0.3,3.3-0.9,4.3s-1.5,1.5-2.9,1.5c-0.4,0-0.7-0.1-1.1-0.2c-0.4-0.1-0.7-0.3-1-0.5c-0.3-0.2-0.6-0.4-0.9-0.7
		c-0.3-0.2-0.4-0.5-0.6-0.7h-0.1v1.8L1333.7,624.3z M1337.1,621c0.6,0.7,1.3,1,2,1c0.2,0,0.4,0,0.6-0.1s0.4-0.3,0.5-0.5
		c0.2-0.3,0.3-0.6,0.4-1.1c0.1-0.4,0.1-1,0.1-1.8v-3.1c0-0.7,0-1.3-0.1-1.8s-0.2-0.8-0.4-1.1c-0.2-0.3-0.3-0.4-0.5-0.5
		c-0.2-0.1-0.4-0.1-0.6-0.1c-0.7,0-1.4,0.3-2,1V621z"/>
	<path class="st3" d="M1367.8,615c0-1.9,0.5-3.3,1.4-4.2c0.9-0.9,2.3-1.3,4-1.3c1.7,0,3,0.4,4,1.3s1.4,2.3,1.4,4.2v4.1
		c0,1.9-0.5,3.3-1.4,4.2c-1,0.9-2.3,1.3-4,1.3c-1.7,0-3-0.4-4-1.3s-1.4-2.3-1.4-4.2V615z M1371.2,619.9c0,0.6,0.2,1,0.5,1.3
		c0.4,0.3,0.8,0.4,1.4,0.4s1.1-0.1,1.4-0.4c0.4-0.3,0.6-0.7,0.6-1.3v-5.8c0-0.6-0.2-1-0.6-1.3c-0.4-0.3-0.8-0.4-1.4-0.4
		c-0.6,0-1.1,0.1-1.4,0.4c-0.4,0.3-0.6,0.7-0.6,1.3L1371.2,619.9z"/>
	<path class="st3" d="M1380,613.1v-2.7h1.3v-4h3.4v4h2.2v2.7h-2.2v7.5c0,0.4,0.1,0.6,0.4,0.8c0.3,0.2,0.6,0.3,1.1,0.3
		c0.1,0,0.2,0,0.3,0s0.2,0,0.3,0v2.9c-0.3,0.1-0.6,0.1-1,0.1c-0.3,0-0.6,0-1,0c-1.1,0-2-0.2-2.7-0.7c-0.7-0.4-1-1.2-1-2.2v-8.6h-1.1
		V613.1z"/>
	<path class="st3" d="M1392.1,617.8v1.9c0,0.7,0.2,1.3,0.6,1.6c0.4,0.3,0.9,0.5,1.4,0.5c0.7,0,1.2-0.2,1.5-0.6
		c0.3-0.4,0.5-0.9,0.5-1.5h3.4c-0.1,1.5-0.6,2.7-1.5,3.5s-2.2,1.2-3.9,1.2c-0.8,0-1.5-0.1-2.2-0.4c-0.7-0.2-1.2-0.6-1.7-1
		s-0.8-1-1.1-1.6c-0.3-0.6-0.4-1.4-0.4-2.2v-4.8c0-0.8,0.1-1.5,0.4-2.2c0.3-0.6,0.6-1.2,1.1-1.6s1-0.8,1.7-1
		c0.7-0.2,1.4-0.4,2.2-0.4c0.8,0,1.5,0.1,2.2,0.4c0.7,0.2,1.2,0.6,1.7,1s0.8,1,1.1,1.6c0.3,0.6,0.4,1.3,0.4,2v3.4L1392.1,617.8z
		 M1396.1,615.1v-0.8c0-0.6-0.2-1.2-0.5-1.5c-0.3-0.4-0.8-0.6-1.5-0.6c-0.7,0-1.2,0.2-1.5,0.6c-0.3,0.4-0.5,0.9-0.5,1.5v0.8H1396.1z
		"/>
	<path class="st3" d="M1402.8,604.9h3.4v19.4h-3.4V604.9z"/>
</g>
<g class="st2">
	<path class="st6" d="M1322.7,409.1v-19.4h9.7v3.3h-6v4.5h4.7v3.3h-4.7v8.4L1322.7,409.1z"/>
	<path class="st6" d="M1337.7,402.6v1.9c0,0.7,0.2,1.3,0.6,1.6c0.4,0.3,0.9,0.5,1.4,0.5c0.7,0,1.2-0.2,1.5-0.6
		c0.3-0.4,0.5-0.9,0.5-1.5h3.4c-0.1,1.5-0.6,2.7-1.5,3.5s-2.2,1.2-3.9,1.2c-0.8,0-1.5-0.1-2.2-0.4c-0.7-0.2-1.2-0.6-1.7-1
		s-0.8-1-1.1-1.6c-0.3-0.6-0.4-1.4-0.4-2.2v-4.8c0-0.8,0.1-1.5,0.4-2.2c0.3-0.6,0.6-1.2,1.1-1.6s1-0.8,1.7-1
		c0.7-0.2,1.4-0.4,2.2-0.4c0.8,0,1.5,0.1,2.2,0.4c0.7,0.2,1.2,0.6,1.7,1s0.8,1,1.1,1.6c0.3,0.6,0.4,1.3,0.4,2v3.4L1337.7,402.6z
		 M1341.7,399.8V399c0-0.6-0.2-1.2-0.5-1.5c-0.3-0.4-0.8-0.6-1.5-0.6c-0.7,0-1.2,0.2-1.5,0.6c-0.3,0.4-0.5,0.9-0.5,1.5v0.8H1341.7z"
		/>
	<path class="st6" d="M1348,409.1v-14.6h3.3v1.7c0.6-0.5,1.2-1,1.8-1.4s1.3-0.6,1.9-0.6c1,0,1.8,0.3,2.4,0.9
		c0.5,0.6,0.8,1.5,0.8,2.9v11.1h-3.4v-10.8c0-0.5-0.1-0.9-0.3-1.2c-0.2-0.3-0.5-0.4-1-0.4c-0.4,0-0.7,0.1-1.1,0.4
		c-0.4,0.3-0.7,0.6-1.1,0.9v11L1348,409.1z"/>
	<path class="st6" d="M1360.2,394.5h3.2l2,9.1h0.1l2-9.1h2.9l2.1,9.1h0.1l1.9-9.1h3.2l-3.5,14.6h-3.2l-2.1-9.1h-0.1l-1.8,9.1h-3.2
		L1360.2,394.5z"/>
	<path class="st6" d="M1379.1,398.8c0.1-0.8,0.2-1.5,0.6-2.1c0.3-0.6,0.7-1.1,1.2-1.4c0.5-0.4,1.1-0.6,1.7-0.8
		c0.6-0.2,1.3-0.3,2-0.3c0.9,0,1.7,0.1,2.3,0.3c0.6,0.2,1.2,0.5,1.5,0.9c0.4,0.4,0.7,0.9,0.9,1.4c0.2,0.5,0.3,1.1,0.3,1.8v9.3
		c0,0.2,0,0.4,0.1,0.6c0,0.2,0.1,0.4,0.1,0.6h-3.4c0-0.2-0.1-0.4-0.1-0.6s-0.1-0.5-0.1-0.8c-0.5,0.5-1.1,0.9-1.7,1.2
		c-0.7,0.3-1.4,0.5-2.3,0.5c-1,0-1.8-0.3-2.4-0.9s-0.9-1.5-0.9-2.6c0-0.8,0.2-1.6,0.6-2.2s0.9-1.2,1.6-1.6c0.7-0.5,1.5-0.9,2.4-1.2
		c0.9-0.4,1.9-0.7,2.9-1v-1.1c0-0.6-0.2-1.1-0.5-1.3c-0.3-0.3-0.8-0.4-1.2-0.4c-0.5,0-1,0.2-1.3,0.5c-0.4,0.3-0.6,0.8-0.6,1.3
		L1379.1,398.8z M1386.1,402c-0.5,0.2-1,0.4-1.5,0.6s-0.9,0.5-1.3,0.8s-0.7,0.6-0.9,0.9c-0.2,0.3-0.4,0.7-0.4,1.1
		c0,0.5,0.1,0.9,0.4,1.1c0.3,0.3,0.6,0.4,1.1,0.4s1-0.1,1.4-0.4c0.4-0.2,0.8-0.6,1.2-1V402z"/>
	<path class="st6" d="M1392.1,411.3c0.2,0,0.3,0.1,0.5,0.1c0.2,0,0.3,0,0.5,0c0.4,0,0.7-0.1,1-0.2c0.3-0.1,0.6-0.3,0.8-0.5
		c0.2-0.2,0.4-0.4,0.5-0.6s0.2-0.4,0.2-0.6c0-0.4-0.1-0.9-0.2-1.4c-0.1-0.5-0.3-1.1-0.4-1.7l-3.4-11.8h3.4l2.3,9.7h0.1l2.1-9.7h3.4
		l-3.9,14.6c-0.3,1-0.6,1.8-0.9,2.5s-0.7,1.2-1.1,1.6c-0.4,0.4-1,0.7-1.6,0.9c-0.6,0.2-1.3,0.3-2.2,0.3c-0.2,0-0.3,0-0.5,0
		c-0.2,0-0.4,0-0.6,0L1392.1,411.3z"/>
	<path class="st6" d="M1412.5,409.1v-19.4h5.4c2.3,0,4,0.5,5.1,1.5s1.7,2.4,1.7,4.3c0,1.8-0.6,3.3-1.7,4.3s-2.8,1.5-5.1,1.5h-1.6
		v7.8L1412.5,409.1z M1416.2,398.3h2c1.8,0,2.7-0.9,2.7-2.7c0-1.8-0.9-2.7-2.7-2.7h-2V398.3z"/>
	<path class="st6" d="M1426.9,398.8c0.1-0.8,0.2-1.5,0.6-2.1c0.3-0.6,0.7-1.1,1.2-1.4c0.5-0.4,1.1-0.6,1.7-0.8
		c0.6-0.2,1.3-0.3,2-0.3c0.9,0,1.7,0.1,2.3,0.3c0.6,0.2,1.2,0.5,1.5,0.9c0.4,0.4,0.7,0.9,0.9,1.4c0.2,0.5,0.3,1.1,0.3,1.8v9.3
		c0,0.2,0,0.4,0.1,0.6c0,0.2,0.1,0.4,0.1,0.6h-3.4c0-0.2-0.1-0.4-0.1-0.6s-0.1-0.5-0.1-0.8c-0.5,0.5-1.1,0.9-1.7,1.2
		c-0.6,0.3-1.4,0.5-2.3,0.5c-1,0-1.8-0.3-2.4-0.9s-0.9-1.5-0.9-2.6c0-0.8,0.2-1.6,0.6-2.2s0.9-1.2,1.6-1.6c0.7-0.5,1.5-0.9,2.4-1.2
		c0.9-0.4,1.9-0.7,2.9-1v-1.1c0-0.6-0.2-1.1-0.5-1.3c-0.3-0.2-0.8-0.4-1.2-0.4c-0.5,0-1,0.2-1.3,0.5c-0.4,0.3-0.6,0.8-0.6,1.3
		L1426.9,398.8z M1433.9,402c-0.5,0.2-1,0.4-1.5,0.6s-0.9,0.5-1.3,0.8c-0.4,0.3-0.7,0.6-0.9,0.9c-0.2,0.3-0.4,0.7-0.4,1.1
		c0,0.5,0.1,0.9,0.4,1.1c0.3,0.3,0.6,0.4,1.1,0.4s1-0.1,1.4-0.4c0.4-0.2,0.8-0.6,1.2-1V402z"/>
	<path class="st6" d="M1440.6,409.2v-14.6h3.3v1.9h0.1c0.4-0.7,0.9-1.3,1.4-1.7c0.5-0.4,1.2-0.5,2.1-0.5v3.7
		c-0.3-0.1-0.6-0.2-0.9-0.3c-0.3-0.1-0.6-0.1-0.9-0.1c-0.6,0-1,0.2-1.2,0.5c-0.3,0.3-0.4,0.7-0.4,1.1v10H1440.6z"/>
	<path class="st6" d="M1449.7,409.2v-19.4h3.4v10.5h0.1l3.6-5.7h3.8l-3.4,4.9l3.7,9.7h-3.6l-2.5-6.9l-1.7,2.4v4.5H1449.7z"/>
</g>
<rect x="1433" y="552.2" transform="matrix(0.9434 0.3316 -0.3316 0.9434 271.7683 -464.6073)" class="st5" width="128.6" height="23.8"/>
<g class="st2">
	<path class="st7" d="M1300.7,824.8l-0.1-24.5h4.7v9.8h6.6v-9.8h4.7l0.1,24.5h-4.7v-10.6h-6.6v10.6H1300.7z"/>
	<path class="st7" d="M1320.7,808c0-1.5,0.2-2.8,0.6-3.8c0.4-1,0.9-1.9,1.6-2.5c0.7-0.6,1.5-1.1,2.4-1.4c1-0.3,2-0.5,3.1-0.5
		s2.2,0.1,3.1,0.4c1,0.3,1.8,0.8,2.5,1.4c0.7,0.6,1.2,1.5,1.6,2.5c0.4,1,0.6,2.3,0.6,3.8v8.8c0,1.5-0.2,2.8-0.6,3.8
		s-0.9,1.9-1.6,2.5s-1.5,1.1-2.4,1.4c-1,0.3-2,0.5-3.1,0.5s-2.2-0.1-3.1-0.4c-1-0.3-1.8-0.8-2.5-1.4c-0.7-0.6-1.2-1.5-1.6-2.5
		s-0.6-2.3-0.6-3.8V808z M1325.4,817.4c0,1.4,0.3,2.3,0.8,2.8s1.3,0.7,2.2,0.7c1,0,1.7-0.2,2.2-0.7s0.8-1.4,0.8-2.8v-10
		c0-1.4-0.3-2.3-0.8-2.8s-1.3-0.7-2.2-0.7c-1,0-1.7,0.2-2.2,0.7s-0.8,1.4-0.8,2.8V817.4z"/>
	<path class="st7" d="M1346.8,800l0.1,19.3c0,1.7-0.5,3-1.6,4s-2.6,1.5-4.7,1.6c-0.5,0-1,0-1.3,0c-0.3,0-0.7,0-1-0.1v-4.1
		c0.2,0,0.5,0,0.7,0.1c0.2,0,0.4,0,0.6,0c1.1,0,1.8-0.2,2.1-0.5c0.3-0.3,0.5-1,0.5-1.8l-0.1-18.4L1346.8,800z"/>
	<path class="st7" d="M1350.9,807.9c0-1.5,0.2-2.8,0.6-3.8s0.9-1.9,1.6-2.5s1.5-1.1,2.4-1.4c1-0.3,2-0.5,3.1-0.5s2.2,0.1,3.1,0.4
		c1,0.3,1.8,0.8,2.5,1.4c0.7,0.6,1.2,1.5,1.6,2.5s0.6,2.3,0.6,3.8v8.8c0,1.5-0.2,2.8-0.6,3.8c-0.4,1-0.9,1.9-1.6,2.5
		c-0.7,0.6-1.5,1.1-2.4,1.4c-1,0.3-2,0.5-3.1,0.5s-2.2-0.1-3.1-0.4c-1-0.3-1.8-0.8-2.5-1.4c-0.7-0.6-1.2-1.5-1.6-2.5
		c-0.4-1-0.6-2.3-0.6-3.8V807.9z M1355.7,817.3c0,1.4,0.3,2.3,0.8,2.8s1.3,0.7,2.2,0.7c1,0,1.7-0.2,2.2-0.7s0.8-1.4,0.8-2.8v-10
		c0-1.4-0.3-2.3-0.8-2.8s-1.3-0.7-2.2-0.7c-1,0-1.7,0.2-2.2,0.7s-0.8,1.4-0.8,2.8V817.3z"/>
	<path class="st7" d="M1370.3,824.5l-0.1-24.5h4.7v10.1h0.1l6-10.2h5.1l-6.3,9.9l7.1,14.6h-5.3l-4.9-10.3l-1.8,2.8v7.5L1370.3,824.5
		z"/>
	<path class="st7" d="M1388.7,807.7c0-1.5,0.2-2.8,0.6-3.8c0.4-1,0.9-1.9,1.6-2.5c0.7-0.6,1.5-1.1,2.4-1.4c1-0.3,2-0.5,3.1-0.5
		s2.2,0.1,3.1,0.4c1,0.3,1.8,0.8,2.5,1.4c0.7,0.6,1.2,1.5,1.6,2.5c0.4,1,0.6,2.3,0.6,3.8v8.8c0,1.5-0.2,2.8-0.6,3.8
		s-0.9,1.9-1.6,2.5s-1.5,1.1-2.4,1.4s-2,0.5-3.1,0.5s-2.2-0.1-3.1-0.4c-1-0.3-1.8-0.8-2.5-1.4c-0.7-0.6-1.2-1.5-1.6-2.5
		s-0.6-2.3-0.6-3.8V807.7z M1393.5,817.1c0,1.4,0.3,2.3,0.8,2.8s1.3,0.7,2.2,0.7c1,0,1.7-0.2,2.2-0.7s0.8-1.4,0.8-2.8v-10
		c0-1.4-0.3-2.3-0.8-2.8s-1.3-0.7-2.2-0.7c-1,0-1.7,0.2-2.2,0.7s-0.8,1.4-0.8,2.8V817.1z"/>
</g>
<g>
	
		<rect x="1438.4" y="738.7" transform="matrix(1 -4.619922e-03 4.619922e-03 1 -3.4994 6.7446)" class="st6" width="39.5" height="44.2"/>
	<path class="st7" d="M1456,725.1c-19.9,0.1-35.8,16.5-35.7,36c0.2,33.3,36.1,67.5,36.1,67.5s35.7-38.2,35.5-67.8
		C1492.3,740.8,1475.9,725,1456,725.1z M1456.2,773.9c-8.3,0-14.9-6.4-14.9-14.8s6.4-14.9,14.8-14.9c8.3,0,14.9,6.4,14.9,14.8
		S1464.5,773.9,1456.2,773.9z"/>
</g>
<g>
	<path class="st3" d="M1353.9,604.9h3.5v8.4h4.3v-8.4h3.5v19.5h-3.5v-8.7h-4.3v8.7h-3.5V604.9z"/>
</g>
</svg>
