<?xml version="1.0" encoding="utf-8"?>
<!-- Generator: Adobe Illustrator 19.1.0, SVG Export Plug-In . SVG Version: 6.00 Build 0)  -->
<svg version="1.1" id="Layer_1" xmlns="http://www.w3.org/2000/svg" xmlns:xlink="http://www.w3.org/1999/xlink" x="0px" y="0px"
	 viewBox="208 36.1 1027.4 666.9" style="enable-background:new 208 36.1 1027.4 666.9;" xml:space="preserve">
<style type="text/css">
	.st0{fill:none;stroke:#D1D3D4;stroke-width:6;stroke-miterlimit:10;}
	.st1{fill:none;}
	.st2{fill:#6D6E71;}
	.st3{font-family:'TradeGothicLH-Extended';}
	.st4{font-size:26.8843px;}
	.st5{font-size:26.8868px;}
	.st6{font-size:26.8875px;}
	.st7{font-size:26.8837px;}
	.st8{fill:none;stroke:#D1D3D4;stroke-width:4;stroke-linecap:round;stroke-miterlimit:10;}
	.st9{fill:#BBBDC0;}
	.st10{font-size:26.8855px;}
	.st11{fill:#8EAD6A;}
	.st12{font-size:34px;}
	.st13{fill:#FFFFFF;}
</style>
<line class="st0" x1="248.2" y1="673" x2="241.3" y2="262.9"/>
<path class="st0" d="M242.3,307.1c0,0,754.9,18,831.1-18.5"/>
<path class="st0" d="M988.4,639c0,0-12.8-215.9-6.4-270.4s15.4-66.8,15.4-66.8"/>
<line class="st0" x1="246.6" y1="640.9" x2="1015.4" y2="638.8"/>
<rect x="143.9" y="95.9" transform="matrix(-1.106557e-02 -0.9999 0.9999 -1.106557e-02 145.6128 375.5032)" class="st1" width="229.1" height="39.7"/>
<text transform="matrix(1.106558e-02 0.9999 -0.9999 1.106558e-02 236.4538 57.3615)" class="st2 st3 st4">Yawkey Way</text>
<text transform="matrix(1 -4.367568e-04 4.367568e-04 1 744.4367 618.6543)" class="st2 st3 st5">Boylston St</text>
<text transform="matrix(0.8482 -0.5297 0.5297 0.8482 1086.0272 288.6489)" class="st2 st3 st6">Ipswich St</text>
<text transform="matrix(0.9999 1.066393e-02 -1.066393e-02 0.9999 345.8076 291.613)" class="st2 st3 st7">Van Ness St</text>
<line class="st8" x1="416.1" y1="396.4" x2="417.8" y2="640.6"/>
<path class="st8" d="M482.7,629"/>
<polyline class="st8" points="478.6,640.7 482.5,355.3 669.8,354.1 "/>
<line class="st8" x1="479.6" y1="571.1" x2="610" y2="569"/>
<rect x="271.1" y="336.4" transform="matrix(-1 -5.160322e-03 5.160322e-03 -1 651.8555 927.499)" class="st9" width="112" height="253"/>
<polygon class="st9" points="700.7,400.5 700.5,383.5 500.6,385.1 501,436.2 526.7,436 526.7,449.6 509.9,449.5 510.2,529.9 
	510.2,540.1 548.8,539.8 548.8,529.5 566.4,529.5 565.6,449.3 541,449.5 541,435.9 636.4,435.4 636.4,451.1 608.9,451.4 
	609.5,525.6 605.5,525.6 605.6,534.5 591.3,535.7 591.6,552.6 609.7,553.1 609.6,578.4 624.7,578.2 630.6,593.8 637.3,593.6 
	642.3,578.1 647.1,578 646.3,454.3 646.2,451.3 646.4,435.2 700.7,434.9 700.8,411.9 705.6,411.7 705.2,400.2 "/>
<rect x="767.5" y="381.1" transform="matrix(1.903959e-03 -1 1 1.903959e-03 297.6006 1337.9114)" class="st9" width="103" height="277.5"/>
<line class="st8" x1="977.4" y1="454.5" x2="727.2" y2="453.4"/>
<line class="st8" x1="979.8" y1="382.8" x2="729.6" y2="382"/>
<rect x="852" y="-138" class="st1" width="237.4" height="61.2"/>
<text transform="matrix(1 6.061582e-04 -6.061582e-04 1 528.8731 418.4817)" class="st2 st3 st10">Verb hotel </text>
<rect x="676.9" y="347.4" transform="matrix(-0.9434 -0.3316 0.3316 -0.9434 1321.2798 943.9907)" class="st1" width="128.6" height="23.8"/>
<text transform="matrix(1 -4.619967e-03 4.619967e-03 1 724.8008 358.1993)" class="st11 st3 st12">HOJOKO</text>
<g>
	
		<rect x="650.4" y="303.5" transform="matrix(-1 4.619873e-03 -4.619873e-03 -1 1342.851 649.3083)" class="st13" width="40.5" height="45.4"/>
	<path class="st11" d="M668.4,289.4c-20.5,0.1-36.7,16.9-36.7,37c0.2,34.2,37.1,69.4,37.1,69.4s36.6-39.2,36.5-69.7
		C705.6,305.6,688.8,289.3,668.4,289.4z M668.6,339.6c-8.6,0-15.3-6.6-15.3-15.2s6.6-15.3,15.2-15.3s15.3,6.6,15.3,15.2
		S677.2,339.6,668.6,339.6z"/>
</g>
</svg>
