<?xml version="1.0" encoding="utf-8"?>
<!-- Generator: Adobe Illustrator 19.1.0, SVG Export Plug-In . SVG Version: 6.00 Build 0)  -->
<svg version="1.1" id="Layer_1" xmlns="http://www.w3.org/2000/svg" xmlns:xlink="http://www.w3.org/1999/xlink" x="0px" y="0px"
	 viewBox="-55 181 477 402" style="enable-background:new -55 181 477 402;" xml:space="preserve">
<style type="text/css">
	.st0{fill:none;stroke:#D1D3D4;stroke-width:6;stroke-miterlimit:10;}
	.st1{fill:none;}
	.st2{fill:#6D6E71;}
	.st3{font-family:'TradeGothicLH-Extended';}
	.st4{font-size:7.7796px;}
	.st5{font-size:7.7799px;}
	.st6{fill:none;stroke:#D1D3D4;stroke-width:4;stroke-linecap:round;stroke-miterlimit:10;}
	.st7{fill:#BBBDC0;}
	.st8{fill:#FFFFFF;}
	.st9{fill:#D1D3D4;}
	.st10{font-size:7.78px;}
	.st11{font-size:8.644px;}
	.st12{fill:#8EAD6A;}
</style>
<g>
	<polyline class="st0" points="94.4,567.7 22.3,372.7 2.3,315.7 	"/>
	<path class="st0" d="M57.7,468.4c0,0,207.8-67.5,225.1-84.8s65-80.1,65-80.1l59.9-79.5"/>
	<path class="st0" d="M293.2,487.4c0,0-24.2-57.7-27.7-73.2c-3.5-15.5-2.2-19.7-2.2-19.7"/>
	<line class="st0" x1="90.9" y1="559.1" x2="347.8" y2="468.4"/>
	
		<rect x="10.6" y="408.9" transform="matrix(-0.342 -0.9397 0.9397 -0.342 -330.8733 597.5562)" class="st1" width="66.3" height="11.5"/>
	<text transform="matrix(0.342 0.9397 -0.9397 0.342 36.1565 393.4299)" class="st2 st3 st4">Yawkey Way</text>
	<text transform="matrix(0.9433 -0.332 0.332 0.9433 160.8068 529.0841)" class="st2 st3 st4">Boylston St</text>
	<text transform="matrix(0.6246 -0.781 0.781 0.6246 299.5556 357.2281)" class="st2 st3 st5">Ipswich St</text>
	<text transform="matrix(0.9469 -0.3215 0.3215 0.9469 84.4608 454.2289)" class="st2 st3 st4">Van Ness St</text>
	<line class="st6" x1="113.7" y1="476.1" x2="137.6" y2="542.6"/>
	<path class="st6" d="M154.2,533.2"/>
	<polyline class="st6" points="154.2,536.8 127.9,458.5 178.9,440.2 	"/>
	<line class="st6" x1="147.8" y1="517.7" x2="183.2" y2="504.6"/>
	<line class="st0" x1="2.3" y1="315.7" x2="95.8" y2="194.3"/>
	<line class="st0" x1="-40.7" y1="371.5" x2="2.3" y2="315.7"/>
	<path class="st0" d="M37.6,267.7c5.8,4.2,13.3,7.6,22,7.9c20.6,0.8,255.9-1.2,310.8-1.7"/>
	
		<rect x="79.6" y="466.2" transform="matrix(-0.9451 0.3267 -0.3267 -0.9451 350.6293 946.6883)" class="st7" width="32.4" height="73.2"/>
	<polygon class="st7" points="191.8,449.9 190.1,445.3 135.7,464.9 140.7,478.8 147.7,476.3 149,480 144.4,481.6 152.2,503.5 
		153.2,506.3 163.7,502.5 162.7,499.7 167.5,498 159.6,476.2 152.9,478.6 151.6,474.9 177.6,465.6 179.1,469.9 171.6,472.6 
		178.9,492.8 177.8,493.2 178.7,495.6 174.9,497.3 176.6,501.9 181.6,500.3 184,507.2 188.1,505.7 191.2,509.4 193,508.7 192.9,504 
		194.2,503.5 182.1,469.8 181.8,469 180.3,464.6 195.1,459.3 192.9,453 194.2,452.5 193,449.4 	"/>
	
		<rect x="220.6" y="431" transform="matrix(-0.3298 -0.9441 0.9441 -0.3298 -131.5617 848.8762)" class="st7" width="29.8" height="80.3"/>
	<line class="st6" x1="272.5" y1="438.1" x2="204.1" y2="461.8"/>
	<line class="st6" x1="266.3" y1="418.3" x2="197.9" y2="442.1"/>
	<path class="st8" d="M96.7,291.2l57.3-1.1l25.6,14.2l21,52.7l-3.5,5.8l-14.4,5.9l-21.5,2.4l-32.9,13.1c0,0-29,3.7-32.3,3.4
		c-3.2-0.3-12.1-3.7-12-9.7s1.9-38.6,1.9-38.6l12-15.1L96.7,291.2z"/>
	<path class="st9" d="M99.2,293.8l54.2-1l24.2,13.5l19.9,49.8l-3.4,5.4l-13.6,5.6l-20.4,2.3L129,381.8c0,0-27.4,3.5-30.5,3.2
		s-11.4-3.5-11.4-9.2c0-5.7,1.8-36.5,1.8-36.5l11.3-14.3L99.2,293.8z"/>
	<path class="st8" d="M132.7,350.3c-0.5-1.3-4.6-6.9-8.9-10.3c-4.4-3.5-12.4-4.3-17.6-4.2c-5.2,0-8.9,2.2-9.7,3
		c-1.2,1.1-1.7,2-3.1,6.5c-1.4,4.5,1.9,7.6,1.9,7.6h0.1v17.5c-1.8,0.6-3.2,2.3-3.2,4.3c0,2.5,2,4.6,4.6,4.6c2.2,0,4-1.6,4.5-3.6
		h17.6l0,0c0.2,1,1.9,2.1,4.5,2.4c2.6,0.3,8-2.2,9.5-3.7s2.2-4.1,3-9.3C136.5,359.7,133.3,351.7,132.7,350.3z M118.6,373.7h-17.5
		l0,0c-0.4-1.8-2-3.2-3.8-3.5v-17.1h0.1c3.7,0.3,5.4-3.3,5.4-3.3l15.5-0.3c0,0,1.1,3,2.9,3l0.3,15.4
		C121.5,367.9,118.3,369.8,118.6,373.7z"/>
	<text transform="matrix(0.6093 -0.793 0.793 0.6093 12.847 319.2209)" class="st2 st3 st10">Brookline Ave</text>
	<rect x="216.7" y="279.7" class="st1" width="68.7" height="17.7"/>
	<text transform="matrix(1 0 0 1 225.5345 285.9085)" class="st2 st3 st4">Lansdowne St</text>
	<text transform="matrix(1 0 0 1 276.5345 285.9085)" class="st2 st3 st11"> </text>
	<text transform="matrix(0.9436 -0.331 0.331 0.9436 146.6088 471.3005)" class="st2 st3 st4">Verb hotel </text>
	<rect x="180.3" y="431.3" class="st1" width="37.2" height="6.9"/>
	<text transform="matrix(1 0 0 1 180.35 436.9222)" class="st12 st3 st4">Hojoko</text>
	<g>
		<rect x="164" y="427.7" class="st8" width="10.9" height="12.2"/>
		<path class="st12" d="M168.9,423.9c-5.5,0-9.9,4.5-9.9,9.9c0,9.2,9.9,18.7,9.9,18.7s9.9-10.5,9.9-18.7
			C178.9,428.3,174.4,423.9,168.9,423.9z M168.9,437.4c-2.3,0-4.1-1.8-4.1-4.1c0-2.3,1.8-4.1,4.1-4.1s4.1,1.8,4.1,4.1
			C173,435.6,171.2,437.4,168.9,437.4z"/>
	</g>
	<rect x="107.3" y="324.2" class="st1" width="70" height="14.7"/>
	<text transform="matrix(1 0 0 1 118.9667 329.8294)" class="st2 st3 st4">Fenway Park </text>
</g>
</svg>
